<svg xmlns="http://www.w3.org/2000/svg" viewBox="0 0 500 1000">
    <path d="M-40.7 632.8C-62 607-93.5 572.5-116.4 539c28.7-21.3 51.8-47.5 69.5-78.5 17.7-31 26.5-63.2 26.5-96.5 0-46.7-15.8-85.5-47.5-116.5S-138.4 201-184.4 201s-85.5 15.5-118.5 46.5-49.5 69.2-49.5 114.5c0 46 19 95.3 57 148-34.7 24.7-62 55-82 91s-30 73.7-30 113c0 52.7 17.8 96.8 53.5 132.5s79.8 53.5 132.5 53.5c60 0 115.4-21 173.9-81 23 24.3 50.6 46.7 85.3 64.5 23.5 12.1 50.6 16.5 79.8 16.5 60 0 114.7-22.3 164-67l52 83 109-82-75-97c2.7-4 7.3-10.7 14-20 18-26 35-53 51-81l13-24-107-74-17 16c-9.3 8-14 18.7-14 32 0 2 .2 4.3.5 7s.5 4.3.5 5c-6 16.7-11.3 29-16 37l-66-90.6c31.1-35.8 47.9-52.9 65.5-83.9 17.7-31 26.5-63.2 26.5-96.5 0-46.7-15.8-85.5-47.5-116.5S200.6 201 154.6 201s-85.5 15.5-118.5 46.5-49.5 69.2-49.5 114.5c0 46 25.2 107.6 74.7 173.1l-102 97.7zm-171.2-301.3c7.7-7.7 16.5-11.5 26.5-11.5 10.7 0 19.8 4.3 27.5 13 7.7 8.7 11.5 20.7 11.5 36 0 28.7-13.3 54.3-40 77-24.7-34.7-37-62.3-37-83 0-13.3 3.8-23.8 11.5-31.5zm1.5 444.5c-17.3 0-31.8-6.2-43.5-18.5s-17.5-29.2-17.5-50.5c0-36.7 14.3-69.3 47-100l92.7 121.5c-29.3 28-52.7 47.5-78.7 47.5zm337.5-444.5c7.7-7.7 16.5-11.5 26.5-11.5 10.7 0 19.8 4.3 27.5 13 7.7 8.7 11.5 20.7 11.5 36 0 28.7-13.3 54.3-40 77-24.7-34.7-37-62.3-37-83 0-13.3 3.8-23.8 11.5-31.5zm7.9 300.9L211.6 734c-29.3 28-57 42-83 42-23.6 0-55.9-8.8-87.3-48.7l93.7-94.9z"/>
</svg>
