<svg xmlns="http://www.w3.org/2000/svg" viewBox="0 0 500 1000">
    <path d="M406.6 621l-65-45c-2.7 2.7-4 6-4 10 0 1.3.2 3.3.5 6s.5 4.7.5 6c0 4-.3 6.7-1 8-8.7 28.7-23.7 55.7-45 81L186.2 544.5c36.4-39.9 53.2-56.5 72.9-86.5 19.7-30 29.5-61.3 29.5-94 0-38-12.8-69.7-38.5-95-25.7-25.3-57.5-38-95.5-38-38.7 0-71.3 12.5-98 37.5-26.7 25-40 56.2-40 93.5 0 46 38.9 115.5 86.3 172.8C59 582.9 11 625.3-45.4 678.2c-39-41.9-80.9-94.6-118.2-144.8 32.7-18 62.8-45.4 82.5-75.4 19.7-30 29.5-61.3 29.5-94 0-38-12.8-69.7-38.5-95-25.7-25.3-57.5-38-95.5-38-38.7 0-71.3 12.5-98 37.5-26.7 25-40 56.2-40 93.5 0 46 23.7 97.7 71 155-38.7 20.7-69.3 49-92 85-22.7 36-34 73.3-34 112 0 44.7 14.8 81.8 44.5 111.5 29.7 29.7 66.8 43.3 111.5 44.5 54.9 1.4 96.9-29.3 115.1-44.2 21.4-17.6 34-27.8 61-56.2 0 0 41.8 45.3 84.9 75.7 16.8 11.9 47 22.6 79.2 24.7 31.9 2.1 63-7.8 93-23.5s55.3-36.5 76-62.5l55 88 59-44-70-91c28-37.3 53.3-76 76-116zm-321-258c0-21.3 6.8-38.8 20.5-52.5 13.7-13.7 29.5-20.5 47.5-20.5 18.7 0 34.8 7.5 48.5 22.5 13.7 15 20.5 33.8 20.5 56.5 0 22.7-6.8 44.7-20.5 66-13.7 21.3-25.3 31.4-52.1 59.6C109.3 444 85.6 395 85.6 363zm-340.2 0c0-21.3 6.8-38.8 20.5-52.5 13.7-13.7 29.5-20.5 47.5-20.5 18.7 0 34.8 7.5 48.5 22.5 13.7 15 20.5 33.8 20.5 56.5 0 22.7-6.8 44.7-20.5 66-13.7 21.3-32.2 38.7-55.5 52-40.6-50.7-61-92-61-124zm97.9 416.6c-16.8 13.5-40.6 21.3-54.9 21.3-25.1 0-51.8-8-65-22.8-17-19-26-42.3-26-71 0-26.7 7.7-53 23-79s36-47.3 62-64c42.8 52.7 88.8 116.4 128.8 157.6-18.4 17.7-49.7 43.2-67.9 57.9zM233.6 754c-10 12-25 23.7-45 35-18.5 10.5-36.9 16.8-55.4 16.8-60.4.2-104-41.1-137.6-80.1C53.8 672.3 96.5 625 139 586.4L249.6 737l-16 17z"/>
</svg>
