<svg xmlns="http://www.w3.org/2000/svg" viewBox="0 0 500 1000">
    <path d="M24 576h19q46 0 67-22 26-28 26-85 0-12-1-35.5t-1-36.5q0-89 49-134a177.969 177.969 0 0 1 15-11.5q8-5.5 15-9.5a81.66 81.66 0 0 1 17-7q10-3 16.5-5a114.525 114.525 0 0 1 17.5-3.5q11-1.5 16.5-2t18-1q12.5-.5 17-.5H379v57h-34q-7 0-24-.5t-23.5 0q-6.5.5-18 1.5a74.327 74.327 0 0 0-19.5 4 89.633 89.633 0 0 0-16 8q-40 25-40 93 0 12 1 35t1 35q0 49-15 80-24 48-72 68 85 29 85 155 0 16-1.5 44t-1.5 40q0 75 41 103a74.28 74.28 0 0 0 8.5 5.5 69.35 69.35 0 0 0 10 4.5 98.381 98.381 0 0 0 9.5 3q4 1 11 2l10.5 1.5 12 .5H378v56h-72l-16.5-.5q-16.5-.5-17-1t-15-1.5q-14.5-1-16-2.5T227 1010q-13-2-14.5-5t-13-7q-11.5-4-13.5-9-56-42-56-145 0-20 2-53t2-47q0-67-26-92-21-20-64-20H24z"/>
    <path d="M-236.174 465.3l-32.348 270.435 140-2L-95.174 464.3zm-34-217l61-3-21 172 140-1 20-163 62-2-20 164 200.217-1-6 48-200.217 1-33.348 269.439 227.131-2-5 47-227.131 2-22 180-61 4 22-183-141 1-21 178-59 3 21-180-97 2 4-46 99-2 32.348-271.439-109 1 3-47 111-1z"/>
</svg>
