<svg xmlns="http://www.w3.org/2000/svg" viewBox="0 0 500 1000">
  <title>numbersign_braceleft.Bold</title>
  <path d="M16,546H51c22.667,0,30-4.333,38-13q17-18,17-64,0-10-1-34t-1-38q0-102,59-156a148.3,148.3,0,0,1,23.5-17.5Q199,216,209,211t25.5-8.5q15.5-3.5,24-5.5t25.5-3q17-1,22-1H409V310H296l-12,.5q-12,.5-9,1.5t-9,2.5q-12,1.5-7,3.5-25,16-25,68,0,10,1,33t1,37q0,57-18,94-14,29-41,53,57,50,57,156,0,18-1.5,45.5T231,843q0,59,28,78,17,12,82,12h67v116H302l-19-.5q-19-.5-20.5-1.5t-18.5-2.5q-17-1.5-20.5-4.5t-18-7q-14.5-4-19.5-9t-18-12q-68-53-68-168,0-22,2-54.5t2-45.5q0-54-17-71c-7.333-7.333-13.667-11-35-11H16Z"/>
  <path d="M-209.891,493.522-234.457,714.7l80.848-1,24.566-220.174Zm-87-275,121-5-21,172h80.848l19-162,123-5-20,165,178.086-1-12,109-180.086,1L-32.609,711.7l204.652-2-12,107-205.652,1-22,180-121,7,22-185-80.848,1-22,177-119,5,21-180-96,2,10-106,99-2,24.566-221.174-107,1,7-108,113-1Z"/>
</svg>
